{"glyphs":{"0":{"ha":667,"x_min":0,"x_max":0,"o":"m 225 522 b 333 853 225 775 246 853 b 442 549 419 853 442 796 l 442 442 b 333 111 442 189 421 111 b 225 415 247 111 225 168 z m 25 458 b 333 -19 25 110 96 -19 b 642 506 626 -19 642 232 b 333 983 642 854 571 983 b 25 458 40 983 25 731 z "},"1":{"ha":667,"x_min":0,"x_max":0,"o":"m 453 0 l 453 983 l 306 983 b 75 825 286 875 206 825 l 57 825 l 57 694 l 253 694 l 253 0 z "},"2":{"ha":667,"x_min":0,"x_max":0,"o":"m 631 156 l 260 156 b 361 300 269 193 303 247 l 472 403 b 625 715 585 504 625 588 b 331 983 625 885 528 983 b 25 699 121 983 25 881 l 25 661 l 217 661 b 328 853 218 765 228 853 b 425 731 390 853 425 813 b 322 506 425 629 410 585 l 242 431 b 25 0 96 296 25 175 l 631 0 z "},"3":{"ha":667,"x_min":0,"x_max":0,"o":"m 28 288 l 28 283 b 313 -19 28 96 122 -19 b 639 279 585 -19 639 147 b 464 511 639 403 590 492 l 464 514 b 614 731 557 535 614 613 b 331 983 614 904 508 983 b 42 693 144 983 42 886 l 225 693 b 326 853 225 786 240 853 b 422 724 392 853 422 815 b 308 568 422 643 392 568 l 243 568 l 243 438 l 310 438 b 439 269 419 438 439 357 b 329 111 439 183 426 111 b 219 288 242 111 222 174 z "},"4":{"ha":667,"x_min":0,"x_max":0,"o":"m 369 360 l 175 360 l 367 733 l 369 733 z m 19 204 l 369 204 l 369 0 l 553 0 l 553 204 l 647 204 l 647 360 l 553 360 l 553 983 l 346 983 l 19 368 z "},"5":{"ha":667,"x_min":0,"x_max":0,"o":"m 590 964 l 78 964 l 42 429 l 221 429 b 315 519 228 485 258 519 b 431 311 406 519 431 474 b 314 119 431 183 394 119 b 217 281 228 119 217 215 l 25 281 l 25 254 b 315 -19 25 144 65 -19 b 631 344 568 -19 631 129 b 390 658 631 500 579 658 b 210 585 306 658 247 636 l 207 585 l 228 808 l 590 808 z "},"6":{"ha":667,"x_min":0,"x_max":0,"o":"m 624 733 b 350 983 621 924 492 983 b 19 440 25 983 19 718 b 329 -19 19 200 54 -19 b 647 332 549 -19 647 107 b 407 639 647 508 582 639 b 222 554 321 639 256 606 l 219 554 l 219 603 b 342 853 219 747 236 853 b 432 733 408 853 432 808 z m 229 306 b 339 492 229 439 260 492 b 447 306 417 492 447 439 b 339 111 447 194 436 111 b 229 306 246 111 231 193 z "},"7":{"ha":667,"x_min":0,"x_max":0,"o":"m 31 964 l 31 792 l 444 792 b 138 0 251 531 168 238 l 347 0 b 636 811 379 278 474 582 l 636 964 z "},"8":{"ha":667,"x_min":0,"x_max":0,"o":"m 19 278 b 333 -19 19 165 60 -19 b 647 278 607 -19 647 165 b 481 521 647 401 592 499 l 481 524 b 622 713 586 551 622 642 b 333 983 622 906 513 983 b 44 713 154 983 44 906 b 186 524 44 642 81 551 l 186 521 b 19 278 75 499 19 401 z m 236 718 b 333 853 236 807 268 853 b 431 718 399 853 431 807 b 333 581 431 626 392 581 b 236 718 275 581 236 626 z m 219 281 b 333 450 219 375 243 450 b 447 281 424 450 447 375 b 333 111 447 188 424 111 b 219 281 243 111 219 188 z "},"9":{"ha":667,"x_min":0,"x_max":0,"o":"m 43 229 b 317 -19 46 40 175 -19 b 647 524 642 -19 647 244 b 338 983 647 764 613 983 b 19 632 118 983 19 857 b 260 325 19 456 85 325 b 444 408 346 325 411 358 l 447 408 l 447 361 b 325 111 447 217 431 111 b 235 229 258 111 235 156 z m 219 658 b 328 853 219 769 231 853 b 438 658 421 853 436 771 b 328 472 438 525 407 472 b 219 658 250 472 219 525 z "}," ":{"ha":333,"x_min":0,"x_max":0,"o":""},"!":{"ha":411,"x_min":0,"x_max":0,"o":"m 275 276 l 301 669 l 301 992 l 110 992 l 110 669 l 136 276 z m 110 183 l 110 0 l 301 0 l 301 183 z "},"\"":{"ha":643,"x_min":0,"x_max":0,"o":"m 371 546 l 543 546 l 543 992 l 371 992 z m 100 546 l 272 546 l 272 992 l 100 992 z "},"#":{"ha":667,"x_min":0,"x_max":0,"o":"m 0 242 l 103 242 l 72 0 l 207 0 l 236 242 l 372 242 l 342 0 l 476 0 l 507 242 l 626 242 l 626 397 l 525 397 l 547 567 l 667 567 l 667 722 l 565 722 l 596 964 l 461 964 l 431 722 l 296 722 l 325 964 l 192 964 l 161 722 l 42 722 l 42 567 l 143 567 l 121 397 l 0 397 z m 276 567 l 413 567 l 390 397 l 256 397 z "},"$":{"ha":667,"x_min":0,"x_max":0,"o":"m 374 374 b 454 239 426 346 454 308 b 374 128 454 188 431 140 z m 285 614 b 217 731 238 642 217 681 b 285 836 217 789 243 824 z m 285 -140 l 374 -140 l 374 -19 b 654 278 557 -7 654 78 b 483 529 654 432 586 486 l 374 574 l 374 836 b 439 701 421 821 438 772 l 631 701 l 631 721 b 374 983 631 844 578 967 l 374 1079 l 285 1079 l 285 983 b 25 700 121 965 25 869 b 215 433 25 575 81 482 l 285 408 l 285 128 b 204 294 211 146 204 218 l 13 294 l 13 265 b 285 -19 13 122 54 -1 z "},"%":{"ha":1081,"x_min":0,"x_max":0,"o":"m 774 251 b 835 406 774 350 779 406 b 896 251 890 406 896 350 b 835 86 896 142 890 86 b 774 251 779 86 774 142 z m 626 246 b 835 -19 626 67 663 -19 b 1043 246 1007 -19 1043 67 b 835 511 1043 425 1007 511 b 626 246 663 511 626 425 z m 38 718 b 246 453 38 539 74 453 b 454 718 418 453 454 539 b 246 983 454 897 418 983 b 38 718 74 983 38 897 z m 185 724 b 246 878 185 822 190 878 b 307 724 301 878 307 822 b 246 558 307 614 301 558 b 185 724 190 558 185 614 z m 194 -43 l 318 -43 l 882 1007 l 758 1007 z "},"&":{"ha":824,"x_min":0,"x_max":0,"o":"m 279 789 b 364 869 279 840 317 869 b 451 786 415 869 451 840 b 389 678 451 751 433 714 l 353 647 l 329 681 b 279 789 296 725 279 763 z m 476 199 b 347 136 443 157 401 136 b 208 267 257 136 208 204 b 310 435 208 328 235 376 z m 443 528 b 615 785 560 610 615 686 b 368 992 615 900 538 992 b 115 783 219 992 115 913 b 182 604 115 726 126 686 l 217 553 b 17 267 93 476 17 382 b 321 -19 17 156 69 -19 b 560 76 418 -19 510 17 l 615 0 l 828 0 l 697 183 b 799 476 757 268 799 369 l 626 476 b 592 326 626 436 613 369 z "},"’":{"ha":361,"x_min":0,"x_max":0,"o":"m 272 992 l 89 992 l 89 775 l 161 775 l 161 753 b 89 643 161 701 138 651 l 89 546 b 272 811 238 560 272 664 z "},"(":{"ha":411,"x_min":0,"x_max":0,"o":"m 264 992 b 69 368 128 775 69 563 b 264 -256 69 174 128 -39 l 411 -256 b 253 368 296 -46 253 133 b 411 992 253 603 296 782 z "},")":{"ha":411,"x_min":0,"x_max":0,"o":"m 0 992 b 158 368 115 782 158 603 b 0 -256 158 133 115 -46 l 147 -256 b 342 368 283 -39 342 174 b 147 992 342 563 283 775 z "},"*":{"ha":542,"x_min":0,"x_max":0,"o":"m 214 992 l 214 814 l 44 869 l 10 761 l 179 706 l 74 561 l 167 494 l 271 639 l 375 494 l 468 561 l 363 706 l 532 761 l 497 869 l 328 814 l 328 992 z "},"+":{"ha":833,"x_min":0,"x_max":0,"o":"m 331 0 l 503 0 l 503 265 l 768 265 l 768 438 l 503 438 l 503 703 l 331 703 l 331 438 l 65 438 l 65 265 l 331 265 z "},",":{"ha":333,"x_min":0,"x_max":0,"o":"m 75 217 l 75 0 l 147 0 l 147 -22 b 75 -132 147 -74 124 -124 l 75 -229 b 258 36 224 -215 258 -111 l 258 217 z "},"-":{"ha":514,"x_min":0,"x_max":0,"o":"m 61 483 l 61 319 l 453 319 l 453 483 z "},".":{"ha":333,"x_min":0,"x_max":0,"o":"m 75 217 l 75 0 l 258 0 l 258 217 z "},"/":{"ha":461,"x_min":0,"x_max":0,"o":"m -4 -19 l 151 -19 l 465 1011 l 310 1011 z "},":":{"ha":333,"x_min":0,"x_max":0,"o":"m 75 0 l 258 0 l 258 217 l 75 217 z m 75 507 l 258 507 l 258 724 l 75 724 z "},";":{"ha":333,"x_min":0,"x_max":0,"o":"m 75 217 l 75 0 l 147 0 l 147 -22 b 75 -132 147 -74 124 -124 l 75 -229 b 258 36 224 -215 258 -111 l 258 217 z m 75 724 l 75 507 l 258 507 l 258 724 z "},"<":{"ha":833,"x_min":0,"x_max":0,"o":"m 65 278 l 768 -11 l 768 161 l 299 351 l 768 542 l 768 714 l 65 425 z "},"=":{"ha":833,"x_min":0,"x_max":0,"o":"m 65 417 l 768 417 l 768 589 l 65 589 z m 65 114 l 768 114 l 768 286 l 65 286 z "},">":{"ha":833,"x_min":0,"x_max":0,"o":"m 65 -11 l 768 278 l 768 425 l 65 714 l 65 542 l 535 351 l 65 161 z "},"?":{"ha":668,"x_min":0,"x_max":0,"o":"m 233 685 l 233 719 b 332 872 233 810 261 872 b 426 754 394 872 426 825 b 374 607 426 699 413 650 l 321 547 b 235 329 258 476 235 422 l 235 275 l 407 275 l 407 296 b 475 456 407 367 426 401 l 531 518 b 618 735 597 593 618 660 b 325 1003 618 897 519 1003 b 50 717 142 1003 50 883 l 50 685 z m 225 183 l 225 0 l 417 0 l 417 183 z "},"@":{"ha":1111,"x_min":0,"x_max":0,"o":"m 415 453 b 571 624 415 529 482 624 b 675 518 628 624 675 576 b 514 340 675 436 608 340 b 415 453 454 340 415 392 z m 725 678 b 557 771 685 743 626 771 b 260 429 375 771 260 599 b 463 193 260 282 364 193 b 629 267 536 193 593 228 l 632 267 b 722 193 636 218 669 193 b 1071 590 813 193 1071 297 b 556 1011 1071 844 833 1011 b 40 496 271 1011 40 781 b 556 -19 40 211 271 -19 b 1014 200 764 -19 917 61 l 890 200 b 589 111 815 154 715 111 b 196 494 378 111 196 283 b 579 881 196 694 361 881 b 949 561 772 881 949 746 b 804 319 949 415 858 319 b 776 347 786 319 776 328 b 785 404 776 357 779 379 l 865 751 l 743 751 z "},"A":{"ha":772,"x_min":0,"x_max":0,"o":"m 0 0 l 208 0 l 254 210 l 518 210 l 564 0 l 772 0 l 510 992 l 263 992 z m 385 819 l 388 819 l 483 374 l 289 374 z "},"B":{"ha":772,"x_min":0,"x_max":0,"o":"m 69 0 l 407 0 b 717 290 640 0 717 135 b 536 521 717 422 646 506 l 536 524 b 686 740 635 551 686 633 b 404 992 686 931 568 992 l 69 992 z m 269 844 l 342 844 b 486 715 440 844 486 810 b 326 585 486 622 436 585 l 269 585 z m 269 446 l 356 446 b 508 297 443 446 508 413 b 347 147 508 182 443 147 l 269 147 z "},"C":{"ha":746,"x_min":0,"x_max":0,"o":"m 693 657 b 386 1011 693 801 672 1011 b 49 496 86 1011 49 797 b 386 -19 49 194 86 -19 b 701 379 649 -19 701 165 l 501 379 b 376 128 501 165 449 128 b 249 482 290 128 249 182 b 374 864 249 763 272 864 b 493 657 464 864 493 801 z "},"D":{"ha":797,"x_min":0,"x_max":0,"o":"m 79 0 l 394 0 b 735 510 660 0 735 158 b 407 992 735 801 685 992 l 79 992 z m 279 844 l 364 844 b 535 504 517 844 535 729 b 368 147 535 235 507 147 l 279 147 z "},"E":{"ha":668,"x_min":0,"x_max":0,"o":"m 69 992 l 69 0 l 638 0 l 638 164 l 269 164 l 269 431 l 603 431 l 603 594 l 269 594 l 269 828 l 624 828 l 624 992 z "},"F":{"ha":643,"x_min":0,"x_max":0,"o":"m 69 0 l 269 0 l 269 431 l 603 431 l 603 594 l 269 594 l 269 828 l 624 828 l 624 992 l 69 992 z "},"G":{"ha":772,"x_min":0,"x_max":0,"o":"m 701 697 b 393 1011 701 899 613 1011 b 60 507 138 1011 60 840 b 354 -19 60 164 108 -19 b 563 92 447 -19 515 14 l 565 92 l 565 0 l 713 0 l 713 535 l 389 535 l 389 388 l 521 388 l 521 286 b 397 128 521 179 444 128 b 260 517 282 128 260 278 b 396 864 260 764 299 864 b 510 697 476 864 510 771 z "},"H":{"ha":772,"x_min":0,"x_max":0,"o":"m 69 0 l 269 0 l 269 440 l 503 440 l 503 0 l 703 0 l 703 992 l 503 992 l 503 613 l 269 613 l 269 992 l 69 992 z "},"I":{"ha":358,"x_min":0,"x_max":0,"o":"m 279 0 l 279 992 l 79 992 l 79 0 z "},"J":{"ha":643,"x_min":0,"x_max":0,"o":"m 382 992 l 382 283 b 293 128 382 178 365 128 b 204 283 221 128 204 178 l 204 314 l 21 314 l 21 271 b 283 -19 21 115 72 -19 b 582 278 486 -19 582 67 l 582 992 z "},"K":{"ha":746,"x_min":0,"x_max":0,"o":"m 69 992 l 69 0 l 269 0 l 269 294 l 343 407 l 547 0 l 772 0 l 472 567 l 742 992 l 525 992 l 272 594 l 269 594 l 269 992 z "},"L":{"ha":643,"x_min":0,"x_max":0,"o":"m 624 0 l 624 164 l 269 164 l 269 992 l 69 992 l 69 0 z "},"M":{"ha":1028,"x_min":0,"x_max":0,"o":"m 74 0 l 257 0 l 257 792 l 260 792 l 436 0 l 592 0 l 768 792 l 771 792 l 771 0 l 954 0 l 954 992 l 658 992 l 515 292 l 513 292 l 371 992 l 74 992 z "},"N":{"ha":797,"x_min":0,"x_max":0,"o":"m 69 992 l 69 0 l 253 0 l 253 694 l 256 694 l 500 0 l 728 0 l 728 992 l 544 992 l 544 313 l 542 313 l 300 992 z "},"O":{"ha":772,"x_min":0,"x_max":0,"o":"m 49 496 b 386 -19 49 194 86 -19 b 724 496 686 -19 724 194 b 386 1011 724 797 686 1011 b 49 496 86 1011 49 797 z m 249 496 b 386 864 249 761 268 864 b 524 496 504 864 524 761 b 386 128 524 229 504 128 b 249 496 268 128 249 229 z "},"P":{"ha":721,"x_min":0,"x_max":0,"o":"m 69 0 l 269 0 l 269 396 l 376 396 b 692 694 565 396 692 489 b 419 992 692 843 622 992 l 69 992 z m 269 844 l 353 844 b 492 692 453 844 492 789 b 358 543 492 590 438 543 l 269 543 z "},"Q":{"ha":772,"x_min":0,"x_max":0,"o":"m 754 -15 l 647 93 b 724 496 713 188 724 328 b 386 1011 724 797 686 1011 b 49 496 86 1011 49 797 b 386 -19 49 194 86 -19 b 457 -15 413 -19 436 -18 b 518 0 479 -12 500 -7 l 636 -122 z m 249 496 b 386 864 249 761 268 864 b 524 496 504 864 524 761 b 386 128 524 229 504 128 b 249 496 268 128 249 229 z "},"R":{"ha":772,"x_min":0,"x_max":0,"o":"m 269 844 l 364 844 b 503 707 454 844 503 799 b 353 558 503 600 449 558 l 269 558 z m 69 0 l 269 0 l 269 419 l 376 419 b 494 294 457 419 492 372 l 500 104 b 525 0 501 65 506 28 l 742 0 l 742 8 b 697 186 704 28 699 82 b 538 489 694 396 674 471 l 538 492 b 703 736 650 515 703 604 b 439 992 703 906 603 992 l 69 992 z "},"S":{"ha":721,"x_min":0,"x_max":0,"o":"m 31 310 l 31 269 b 346 -19 31 86 119 -19 b 690 285 563 -19 690 75 b 501 547 690 406 651 482 l 347 614 b 244 749 263 650 244 688 b 358 864 244 807 268 864 b 467 717 435 864 467 810 l 658 717 l 658 744 b 351 1011 658 935 529 1011 b 44 719 163 1011 44 913 b 304 419 44 554 126 481 b 482 250 436 374 482 340 b 363 128 482 167 424 128 b 231 281 257 128 231 188 l 231 310 z "},"T":{"ha":667,"x_min":0,"x_max":0,"o":"m 17 992 l 17 828 l 233 828 l 233 0 l 433 0 l 433 828 l 650 828 l 650 992 z "},"U":{"ha":747,"x_min":0,"x_max":0,"o":"m 57 992 l 57 300 b 374 -19 57 35 211 -19 b 690 300 536 -19 690 47 l 690 992 l 490 992 l 490 300 b 374 128 490 201 467 128 b 257 300 281 128 257 201 l 257 992 z "},"V":{"ha":721,"x_min":0,"x_max":0,"o":"m 4 992 l 232 0 l 489 0 l 717 992 l 510 992 l 363 258 l 358 258 l 218 992 z "},"W":{"ha":1056,"x_min":0,"x_max":0,"o":"m 192 0 l 415 0 l 526 719 l 529 719 l 640 0 l 864 0 l 1044 992 l 853 992 l 743 258 l 740 258 l 624 992 l 432 992 l 315 258 l 313 258 l 203 992 l 11 992 z "},"X":{"ha":746,"x_min":0,"x_max":0,"o":"m 256 501 l 8 0 l 228 0 l 369 336 l 513 0 l 738 0 l 490 501 l 721 992 l 503 992 l 376 671 l 249 992 l 28 992 z "},"Y":{"ha":722,"x_min":0,"x_max":0,"o":"m 4 992 l 261 390 l 261 0 l 461 0 l 461 390 l 718 992 l 501 992 l 363 608 l 360 608 l 229 992 z "},"Z":{"ha":668,"x_min":0,"x_max":0,"o":"m 33 0 l 635 0 l 635 164 l 258 164 l 629 840 l 629 992 l 58 992 l 58 828 l 399 828 l 33 146 z "},"[":{"ha":438,"x_min":0,"x_max":0,"o":"m 111 -256 l 429 -256 l 429 -117 l 283 -117 l 283 853 l 429 853 l 429 992 l 111 992 z "},"\\":{"ha":461,"x_min":0,"x_max":0,"o":"m 310 -19 l 465 -19 l 151 1011 l -4 1011 z "},"]":{"ha":438,"x_min":0,"x_max":0,"o":"m 8 -256 l 326 -256 l 326 992 l 8 992 l 8 853 l 154 853 l 154 -117 l 8 -117 z "},"^":{"ha":833,"x_min":0,"x_max":0,"o":"m 250 429 l 417 772 l 583 429 l 756 429 l 494 964 l 339 964 l 78 429 z "},"_":{"ha":694,"x_min":0,"x_max":0,"o":"m 694 -174 l 694 -104 l 0 -104 l 0 -174 z "},"‘":{"ha":361,"x_min":0,"x_max":0,"o":"m 89 546 l 272 546 l 272 763 l 200 763 l 200 785 b 272 894 200 836 224 886 l 272 992 b 89 726 124 978 89 874 z "},"a":{"ha":668,"x_min":0,"x_max":0,"o":"m 235 518 l 235 539 b 324 636 235 597 265 636 b 413 544 388 636 413 601 b 336 457 413 494 393 472 l 228 428 b 39 194 96 392 39 335 b 219 -19 39 94 86 -19 b 410 78 311 -19 365 0 l 413 78 b 436 0 418 53 424 24 l 619 0 b 596 144 600 43 596 75 l 596 538 b 325 767 596 672 553 767 b 63 536 181 767 63 708 l 63 518 z m 413 226 b 294 111 413 144 346 111 b 222 215 243 111 222 158 b 331 336 222 282 253 319 b 413 374 354 342 386 354 z "},"b":{"ha":694,"x_min":0,"x_max":0,"o":"m 256 374 b 357 619 256 536 272 619 b 457 374 440 619 457 536 b 357 128 457 211 440 128 b 256 374 272 128 256 211 z m 64 0 l 247 0 l 247 79 l 250 79 b 419 -19 292 10 344 -19 b 649 374 576 -19 649 96 b 419 767 649 651 576 767 b 258 678 347 767 299 738 l 256 678 l 256 992 l 64 992 z "},"c":{"ha":643,"x_min":0,"x_max":0,"o":"m 607 478 b 339 767 607 654 515 767 b 36 374 163 767 36 681 b 322 -19 36 74 131 -19 b 607 286 525 -19 607 90 l 424 286 b 331 111 424 165 394 111 b 228 372 244 111 228 188 b 338 628 228 544 243 628 b 424 478 410 628 424 550 z "},"d":{"ha":694,"x_min":0,"x_max":0,"o":"m 238 374 b 338 619 238 536 254 619 b 439 374 422 619 439 536 b 338 128 439 211 422 128 b 238 374 254 128 238 211 z m 447 0 l 631 0 l 631 992 l 439 992 l 439 678 l 436 678 b 275 767 396 738 347 767 b 46 374 118 767 46 651 b 275 -19 46 96 118 -19 b 444 79 350 -19 403 10 l 447 79 z "},"e":{"ha":643,"x_min":0,"x_max":0,"o":"m 607 344 l 607 388 b 333 767 607 617 557 767 b 36 381 75 767 36 581 b 325 -19 36 194 47 -19 b 596 251 506 -19 589 78 l 424 251 b 322 111 413 160 386 111 b 228 285 251 111 228 197 l 228 344 z m 228 458 l 228 488 b 326 636 228 557 250 636 b 424 458 406 636 419 572 z "},"f":{"ha":411,"x_min":0,"x_max":0,"o":"m 106 0 l 297 0 l 297 617 l 408 617 l 408 747 l 297 747 l 297 813 b 371 872 297 856 317 872 b 408 871 383 872 396 872 l 408 1007 b 306 1011 374 1010 340 1011 b 106 832 182 1011 106 967 l 106 747 l 8 747 l 8 617 l 106 617 z "},"g":{"ha":694,"x_min":0,"x_max":0,"o":"m 440 747 l 440 664 l 438 664 b 283 767 401 742 336 767 b 49 386 75 767 49 561 b 278 8 49 113 125 8 b 438 100 339 8 399 44 l 440 100 l 440 1 b 335 -133 440 -75 413 -133 b 271 -112 311 -133 289 -125 b 242 -56 253 -100 242 -81 l 58 -56 b 313 -256 58 -183 150 -256 b 624 38 536 -256 624 -160 l 624 747 z m 240 350 b 340 619 240 551 256 619 b 440 369 417 619 440 551 b 336 156 440 243 417 156 b 240 350 256 156 240 247 z "},"h":{"ha":694,"x_min":0,"x_max":0,"o":"m 64 0 l 256 0 l 256 496 b 357 619 256 579 292 619 b 439 515 414 619 439 590 l 439 0 l 631 0 l 631 554 b 440 767 631 701 560 767 b 258 671 360 767 294 735 l 256 671 l 256 992 l 64 992 z "},"i":{"ha":333,"x_min":0,"x_max":0,"o":"m 71 0 l 263 0 l 263 747 l 71 747 z m 71 839 l 263 839 l 263 1003 l 71 1003 z "},"j":{"ha":333,"x_min":0,"x_max":0,"o":"m 71 14 b -4 -106 71 -68 64 -106 b -35 -103 -15 -106 -25 -106 l -35 -242 b 43 -244 -7 -243 21 -244 b 263 -51 215 -244 263 -176 l 263 747 l 71 747 z m 71 839 l 263 839 l 263 1003 l 71 1003 z "},"k":{"ha":694,"x_min":0,"x_max":0,"o":"m 71 992 l 71 0 l 263 0 l 263 218 l 331 307 l 490 0 l 701 0 l 454 453 l 669 747 l 458 747 l 265 468 l 263 468 l 263 992 z "},"l":{"ha":333,"x_min":0,"x_max":0,"o":"m 71 0 l 263 0 l 263 992 l 71 992 z "},"m":{"ha":1053,"x_min":0,"x_max":0,"o":"m 64 0 l 256 0 l 256 492 b 356 619 256 578 294 619 b 431 522 410 619 431 585 l 431 0 l 622 0 l 622 492 b 722 619 622 578 661 619 b 797 522 776 619 797 585 l 797 0 l 989 0 l 989 543 b 803 767 989 688 929 767 b 614 647 713 767 643 726 l 611 647 b 439 767 590 724 526 767 b 250 671 358 767 299 739 l 247 671 l 247 747 l 64 747 z "},"n":{"ha":694,"x_min":0,"x_max":0,"o":"m 64 0 l 256 0 l 256 496 b 357 619 256 579 292 619 b 439 515 414 619 439 590 l 439 0 l 631 0 l 631 554 b 440 767 631 701 560 767 b 250 660 360 767 290 733 l 247 660 l 247 747 l 64 747 z "},"o":{"ha":667,"x_min":0,"x_max":0,"o":"m 39 374 b 333 -19 39 114 103 -24 b 628 374 553 -19 628 118 b 333 767 628 633 564 771 b 39 374 114 767 39 629 z m 231 374 b 333 636 231 526 239 636 b 436 374 411 636 436 560 b 333 111 436 188 411 111 b 231 374 239 111 231 221 z "},"p":{"ha":694,"x_min":0,"x_max":0,"o":"m 256 374 b 357 619 256 536 272 619 b 457 374 440 619 457 536 b 357 128 457 211 440 128 b 256 374 272 128 256 211 z m 64 -244 l 256 -244 l 256 69 l 258 69 b 419 -19 299 10 347 -19 b 649 374 576 -19 649 96 b 419 767 649 651 576 767 b 250 668 344 767 292 738 l 247 668 l 247 747 l 64 747 z "},"q":{"ha":694,"x_min":0,"x_max":0,"o":"m 439 374 b 338 128 439 211 422 128 b 238 374 254 128 238 211 b 338 619 238 536 254 619 b 439 374 422 619 439 536 z m 439 -244 l 631 -244 l 631 747 l 447 747 l 447 668 l 444 668 b 275 767 403 738 350 767 b 46 374 118 767 46 651 b 275 -19 46 96 118 -19 b 436 69 347 -19 396 10 l 439 69 z "},"r":{"ha":463,"x_min":0,"x_max":0,"o":"m 64 0 l 256 0 l 256 449 b 397 583 256 549 331 583 b 457 581 417 583 438 582 l 457 764 b 422 767 446 765 433 767 b 250 647 343 767 289 719 l 247 647 l 247 747 l 64 747 z "},"s":{"ha":617,"x_min":0,"x_max":0,"o":"m 32 244 l 32 218 b 307 -19 32 75 92 -19 b 585 215 468 -19 585 58 b 419 429 585 328 540 389 l 304 468 b 221 556 240 489 221 519 b 311 636 221 608 263 636 b 396 524 374 636 396 599 l 568 524 l 568 554 b 313 767 568 689 486 767 b 38 542 115 767 38 665 b 197 333 38 436 92 371 l 332 285 b 401 200 369 271 401 249 b 304 111 401 140 363 111 b 204 219 239 111 204 154 l 204 244 z "},"t":{"ha":411,"x_min":0,"x_max":0,"o":"m 106 747 l 8 747 l 8 617 l 106 617 l 106 189 b 283 -8 106 38 133 -8 b 408 0 328 -8 367 -4 l 408 133 b 365 131 396 132 381 131 b 297 213 310 131 297 154 l 297 617 l 408 617 l 408 747 l 297 747 l 297 961 l 106 961 z "},"u":{"ha":694,"x_min":0,"x_max":0,"o":"m 447 0 l 631 0 l 631 747 l 439 747 l 439 251 b 338 128 439 168 403 128 b 256 232 281 128 256 157 l 256 747 l 64 747 l 64 193 b 254 -19 64 46 135 -19 b 444 88 335 -19 404 14 l 447 88 z "},"v":{"ha":617,"x_min":0,"x_max":0,"o":"m 317 213 l 314 213 l 207 747 l 7 747 l 200 0 l 422 0 l 610 747 l 418 747 z "},"w":{"ha":978,"x_min":0,"x_max":0,"o":"m 172 0 l 394 0 l 488 531 l 490 531 l 589 0 l 807 0 l 968 747 l 785 747 l 694 217 l 692 217 l 593 747 l 385 747 l 292 217 l 289 217 l 201 747 l 10 747 z "},"x":{"ha":642,"x_min":0,"x_max":0,"o":"m 321 522 l 218 747 l 18 747 l 213 385 l 10 0 l 210 0 l 321 244 l 432 0 l 632 0 l 429 385 l 624 747 l 424 747 z "},"y":{"ha":617,"x_min":0,"x_max":0,"o":"m 64 -244 l 142 -244 b 429 50 319 -244 363 -208 l 610 747 l 418 747 l 321 231 l 318 231 l 207 747 l 7 747 l 217 0 b 114 -106 211 -67 185 -106 b 64 -101 97 -106 81 -104 z "},"z":{"ha":592,"x_min":0,"x_max":0,"o":"m 33 0 l 558 0 l 558 156 l 260 156 l 558 600 l 558 747 l 47 747 l 47 592 l 332 592 l 33 147 z "},"{":{"ha":438,"x_min":0,"x_max":0,"o":"m 42 311 b 133 199 88 311 133 264 l 133 -69 b 278 -256 133 -187 183 -256 l 401 -256 l 401 -117 l 360 -117 b 306 -17 315 -117 306 -69 l 306 214 b 206 367 306 296 265 356 l 206 369 b 306 522 265 381 306 440 l 306 753 b 360 853 306 806 315 853 l 401 853 l 401 992 l 278 992 b 133 806 183 992 133 924 l 133 538 b 42 425 133 472 88 425 z "},"|":{"ha":308,"x_min":0,"x_max":0,"o":"m 68 -19 l 240 -19 l 240 1011 l 68 1011 z "},"}":{"ha":438,"x_min":0,"x_max":0,"o":"m 36 -256 l 160 -256 b 304 -69 254 -256 304 -187 l 304 199 b 396 311 304 264 350 311 l 396 425 b 304 538 350 425 304 472 l 304 806 b 160 992 304 924 254 992 l 36 992 l 36 853 l 78 853 b 132 753 122 853 132 806 l 132 522 b 232 369 132 440 172 381 l 232 367 b 132 214 172 356 132 296 l 132 -17 b 78 -117 132 -69 122 -117 l 36 -117 z "},"~":{"ha":833,"x_min":0,"x_max":0,"o":"m 688 485 b 563 390 672 450 617 390 b 418 444 524 390 494 404 b 267 485 367 471 318 485 b 96 365 186 485 133 436 l 146 218 b 271 313 161 253 217 313 b 403 265 301 313 324 306 b 567 218 457 238 504 218 b 738 338 647 218 700 267 z "},"¡":{"ha":411,"x_min":0,"x_max":0,"o":"m 110 -244 l 301 -244 l 301 78 l 275 471 l 136 471 l 110 78 z m 110 564 l 301 564 l 301 747 l 110 747 z "},"¢":{"ha":667,"x_min":0,"x_max":0,"o":"m 308 119 b 238 376 238 140 238 267 b 308 628 238 519 247 606 z m 308 -142 l 381 -142 l 381 -19 b 621 290 550 0 621 107 l 438 290 b 381 119 438 235 435 151 l 381 628 b 438 483 431 610 438 540 l 621 483 b 381 767 619 710 500 758 l 381 872 l 308 872 l 308 767 b 46 368 88 750 46 576 b 308 -19 46 60 161 -12 z "},"£":{"ha":667,"x_min":0,"x_max":0,"o":"m 13 425 l 154 425 b 169 357 164 401 169 378 b 7 111 169 263 103 172 l 64 -8 b 200 31 119 19 154 31 b 453 -19 283 31 388 -19 b 660 47 521 -19 593 4 l 599 178 b 454 119 538 138 483 119 b 296 161 407 119 335 161 b 233 151 276 161 243 154 l 228 154 b 353 371 321 231 353 290 b 346 425 353 394 351 411 l 542 425 l 542 539 l 310 539 l 271 618 b 235 743 244 671 235 724 b 351 853 235 799 264 853 b 460 696 432 853 460 782 l 643 696 b 340 983 639 899 529 983 b 43 736 140 983 43 875 b 106 539 43 685 64 619 l 13 539 z "},"⁄":{"ha":232,"x_min":0,"x_max":0,"o":"m -228 -43 l -104 -43 l 460 1007 l 336 1007 z "},"¥":{"ha":667,"x_min":0,"x_max":0,"o":"m 247 0 l 419 0 l 419 221 l 617 221 l 617 335 l 419 335 l 419 394 l 435 426 l 617 426 l 617 540 l 489 540 l 690 964 l 490 964 l 335 590 l 332 590 l 183 964 l -24 964 l 178 540 l 50 540 l 50 426 l 232 426 l 247 394 l 247 335 l 50 335 l 50 221 l 247 221 z "},"ƒ":{"ha":667,"x_min":0,"x_max":0,"o":"m 89 481 l 235 481 l 146 22 b 28 -114 126 -76 110 -114 b -21 -108 11 -114 -4 -112 l -49 -235 b 51 -244 -29 -242 8 -244 b 328 6 244 -244 299 -151 l 418 481 l 572 481 l 593 594 l 440 594 l 461 696 b 594 861 488 825 504 861 b 633 857 607 861 619 861 l 660 988 b 556 992 628 990 589 992 b 281 718 383 992 318 915 l 257 594 l 111 594 z "},"§":{"ha":668,"x_min":0,"x_max":0,"o":"m 53 51 l 53 31 b 333 -211 53 -117 143 -211 b 617 32 511 -211 617 -133 b 542 204 617 113 588 168 b 650 401 607 243 650 331 b 497 628 650 522 582 588 l 332 706 b 243 801 267 736 243 769 b 329 881 243 846 276 881 b 406 854 367 881 392 872 b 425 786 419 836 425 813 l 608 786 b 344 1011 608 917 533 1011 b 60 782 186 1011 60 947 b 143 624 60 717 89 664 b 18 425 67 585 18 511 b 165 211 18 336 63 261 l 336 129 b 425 13 401 97 425 64 b 333 -81 425 -33 399 -81 b 236 31 278 -81 236 -39 l 236 51 z m 229 378 b 182 453 199 394 182 426 b 258 557 182 488 206 525 l 392 486 b 486 372 463 449 486 419 b 421 268 486 343 469 308 b 367 303 404 281 386 292 z "},"¤":{"ha":667,"x_min":0,"x_max":0,"o":"m 85 149 l 156 219 b 333 164 207 183 268 164 b 511 219 400 164 461 185 l 582 149 l 667 235 l 597 304 b 651 482 632 356 651 417 b 597 660 651 547 632 608 l 667 729 l 582 815 l 511 746 b 333 800 461 779 400 800 b 156 746 268 800 207 781 l 85 815 l 0 729 l 69 660 b 15 482 35 608 15 547 b 69 304 15 415 36 354 l 0 235 z m 163 482 b 333 661 163 593 231 661 b 504 482 436 661 504 593 b 333 303 504 371 436 303 b 163 482 231 303 163 371 z "},"'":{"ha":361,"x_min":0,"x_max":0,"o":"m 94 546 l 267 546 l 267 992 l 94 992 z "},"“":{"ha":643,"x_min":0,"x_max":0,"o":"m 365 546 l 549 546 l 549 763 l 476 763 l 476 785 b 549 894 476 836 500 886 l 549 992 b 365 726 400 978 365 874 z m 94 546 l 278 546 l 278 763 l 206 763 l 206 785 b 278 894 206 836 229 886 l 278 992 b 94 726 129 978 94 874 z "},"«":{"ha":592,"x_min":0,"x_max":0,"o":"m 313 289 l 519 122 l 519 306 l 410 401 l 519 497 l 519 681 l 313 514 z m 72 289 l 279 122 l 279 306 l 169 401 l 279 497 l 279 681 l 72 514 z "},"‹":{"ha":335,"x_min":0,"x_max":0,"o":"m 64 289 l 271 122 l 271 306 l 161 401 l 271 497 l 271 681 l 64 514 z "},"›":{"ha":335,"x_min":0,"x_max":0,"o":"m 64 122 l 271 289 l 271 514 l 64 681 l 64 497 l 174 401 l 64 306 z "},"ﬁ":{"ha":746,"x_min":0,"x_max":0,"o":"m 483 0 l 675 0 l 675 747 l 483 747 z m 483 839 l 675 839 l 675 1003 l 483 1003 z m 106 0 l 297 0 l 297 617 l 408 617 l 408 747 l 297 747 l 297 813 b 371 872 297 856 317 872 b 408 871 383 872 396 872 l 408 1007 b 306 1011 374 1010 340 1011 b 106 832 182 1011 106 967 l 106 747 l 8 747 l 8 617 l 106 617 z "},"ﬂ":{"ha":746,"x_min":0,"x_max":0,"o":"m 483 0 l 675 0 l 675 1003 l 483 1003 z m 106 0 l 297 0 l 297 617 l 408 617 l 408 747 l 297 747 l 297 813 b 371 872 297 856 317 872 b 408 871 383 872 396 872 l 408 1007 b 306 1011 374 1010 340 1011 b 106 832 182 1011 106 967 l 106 747 l 8 747 l 8 617 l 106 617 z "},"–":{"ha":694,"x_min":0,"x_max":0,"o":"m 0 324 l 694 324 l 694 479 l 0 479 z "},"†":{"ha":667,"x_min":0,"x_max":0,"o":"m 238 717 l 4 717 l 4 561 l 238 561 l 238 -192 l 429 -192 l 429 561 l 663 561 l 663 717 l 429 717 l 429 992 l 238 992 z "},"‡":{"ha":667,"x_min":0,"x_max":0,"o":"m 238 -192 l 429 -192 l 429 72 l 663 72 l 663 228 l 429 228 l 429 572 l 663 572 l 663 728 l 429 728 l 429 992 l 238 992 l 238 728 l 4 728 l 4 572 l 238 572 l 238 228 l 4 228 l 4 72 l 238 72 z "},"·":{"ha":333,"x_min":0,"x_max":0,"o":"m 32 392 b 167 257 32 317 92 257 b 301 392 242 257 301 317 b 167 526 301 467 242 526 b 32 392 92 526 32 467 z "},"¶":{"ha":667,"x_min":0,"x_max":0,"o":"m 253 -192 l 400 -192 l 400 861 l 501 861 l 501 -192 l 649 -192 l 649 992 l 276 992 b 1 724 113 992 1 936 b 253 465 1 557 89 465 z "},"•":{"ha":694,"x_min":0,"x_max":0,"o":"m 100 496 b 347 249 100 360 211 249 b 594 496 483 249 594 360 b 347 743 594 632 483 743 b 100 496 211 743 100 632 z "},"‚":{"ha":361,"x_min":0,"x_max":0,"o":"m 89 217 l 89 0 l 161 0 l 161 -22 b 89 -132 161 -74 138 -124 l 89 -229 b 272 36 238 -215 272 -111 l 272 217 z "},"„":{"ha":643,"x_min":0,"x_max":0,"o":"m 365 0 l 438 0 l 438 -22 b 365 -132 438 -74 414 -124 l 365 -229 b 549 36 514 -215 549 -111 l 549 217 l 365 217 z m 94 0 l 167 0 l 167 -22 b 94 -132 167 -74 143 -124 l 94 -229 b 278 36 243 -215 278 -111 l 278 217 l 94 217 z "},"”":{"ha":643,"x_min":0,"x_max":0,"o":"m 94 775 l 167 775 l 167 753 b 94 643 167 701 143 651 l 94 546 b 278 811 243 560 278 664 l 278 992 l 94 992 z m 365 775 l 438 775 l 438 753 b 365 643 438 701 414 651 l 365 546 b 549 811 514 560 549 664 l 549 992 l 365 992 z "},"»":{"ha":592,"x_min":0,"x_max":0,"o":"m 72 122 l 279 289 l 279 514 l 72 681 l 72 497 l 182 401 l 72 306 z m 313 122 l 519 289 l 519 514 l 313 681 l 313 497 l 422 401 l 313 306 z "},"…":{"ha":1389,"x_min":0,"x_max":0,"o":"m 140 217 l 140 0 l 324 0 l 324 217 z m 603 217 l 603 0 l 786 0 l 786 217 z m 1065 217 l 1065 0 l 1249 0 l 1249 217 z "},"‰":{"ha":1518,"x_min":0,"x_max":0,"o":"m 1211 251 b 1272 406 1211 350 1217 406 b 1333 251 1328 406 1333 350 b 1272 86 1333 142 1328 86 b 1211 251 1217 86 1211 142 z m 1064 246 b 1272 -19 1064 67 1100 -19 b 1481 246 1444 -19 1481 67 b 1272 511 1481 425 1444 511 b 1064 246 1100 511 1064 425 z m 38 718 b 246 453 38 539 74 453 b 454 718 418 453 454 539 b 246 983 454 897 418 983 b 38 718 74 983 38 897 z m 185 724 b 246 878 185 822 190 878 b 307 724 301 878 307 822 b 246 558 307 614 301 558 b 185 724 190 558 185 614 z m 594 246 b 803 -19 594 67 631 -19 b 1011 246 975 -19 1011 67 b 803 511 1011 425 975 511 b 594 246 631 511 594 425 z m 742 251 b 803 406 742 350 747 406 b 864 251 858 406 864 350 b 803 86 864 142 858 86 b 742 251 747 86 742 142 z m 178 -43 l 301 -43 l 865 1007 l 742 1007 z "},"¿":{"ha":668,"x_min":0,"x_max":0,"o":"m 435 63 l 435 28 b 336 -125 435 -62 407 -125 b 242 -7 274 -125 242 -78 b 294 140 242 49 256 97 l 347 200 b 433 418 410 271 433 325 l 433 472 l 261 472 l 261 451 b 193 292 261 381 242 346 l 138 229 b 50 13 71 154 50 88 b 343 -256 50 -150 149 -256 b 618 31 526 -256 618 -136 l 618 63 z m 443 564 l 443 747 l 251 747 l 251 564 z "},"`":{"ha":308,"x_min":0,"x_max":0,"o":"m 244 835 l 169 1035 l -22 1035 l 114 835 z "},"´":{"ha":308,"x_min":0,"x_max":0,"o":"m 64 835 l 194 835 l 331 1035 l 139 1035 z "},"ˆ":{"ha":308,"x_min":0,"x_max":0,"o":"m -54 835 l 85 835 l 151 953 l 215 835 l 363 835 l 254 1035 l 54 1035 z "},"˜":{"ha":308,"x_min":0,"x_max":0,"o":"m 33 847 b 78 897 40 882 57 897 b 243 850 122 897 183 850 b 372 1022 314 850 363 924 l 272 1022 b 233 972 272 1004 260 972 b 192 981 219 972 206 975 l 125 1010 b 65 1019 108 1017 90 1019 b -64 847 -6 1019 -49 956 z "},"¯":{"ha":308,"x_min":0,"x_max":0,"o":"m -50 992 l -50 886 l 358 886 l 358 992 z "},"˘":{"ha":308,"x_min":0,"x_max":0,"o":"m -39 1035 b 154 839 -37 960 4 839 b 347 1035 304 839 346 960 l 257 1035 b 154 944 251 982 207 944 b 51 1035 101 944 57 982 z "},"˙":{"ha":308,"x_min":0,"x_max":0,"o":"m 76 1011 l 76 847 l 232 847 l 232 1011 z "},"¨":{"ha":308,"x_min":0,"x_max":0,"o":"m -43 847 l 113 847 l 113 1011 l -43 1011 z m 196 847 l 351 847 l 351 1011 l 196 1011 z "},"˚":{"ha":308,"x_min":0,"x_max":0,"o":"m -4 969 b 154 811 -4 882 67 811 b 313 969 242 811 313 882 b 154 1128 313 1057 242 1128 b -4 969 67 1128 -4 1057 z m 74 969 b 154 1050 74 1014 110 1050 b 235 969 199 1050 235 1014 b 154 889 235 925 199 889 b 74 969 110 889 74 925 z "},"¸":{"ha":308,"x_min":0,"x_max":0,"o":"m 129 0 l 53 -128 l 83 -156 b 131 -147 99 -150 111 -147 b 192 -194 168 -147 192 -167 b 122 -242 192 -221 161 -242 b 26 -221 88 -242 46 -232 l 0 -285 b 139 -311 22 -297 78 -311 b 314 -181 251 -311 314 -261 b 197 -78 314 -115 251 -78 b 151 -85 181 -78 168 -81 l 204 0 z "},"˝":{"ha":308,"x_min":0,"x_max":0,"o":"m -51 835 l 79 835 l 215 1035 l 24 1035 z m 179 835 l 310 835 l 446 1035 l 254 1035 z "},"˛":{"ha":308,"x_min":0,"x_max":0,"o":"m 292 -200 b 210 -222 264 -215 243 -222 b 156 -167 175 -222 156 -197 b 297 0 156 -122 179 -85 l 204 0 b 33 -192 92 -42 33 -110 b 167 -311 33 -251 65 -311 b 318 -279 213 -311 279 -300 z "},"ˇ":{"ha":308,"x_min":0,"x_max":0,"o":"m 54 835 l 254 835 l 363 1035 l 224 1035 l 157 917 l 93 1035 l -54 1035 z "},"—":{"ha":1389,"x_min":0,"x_max":0,"o":"m 0 324 l 1389 324 l 1389 479 l 0 479 z "},"Æ":{"ha":1054,"x_min":0,"x_max":0,"o":"m -7 0 l 201 0 l 271 210 l 492 210 l 492 0 l 1024 0 l 1024 164 l 683 164 l 683 431 l 989 431 l 989 594 l 683 594 l 683 828 l 1010 828 l 1010 992 l 367 992 z m 325 374 l 479 836 l 492 836 l 492 374 z "},"ª":{"ha":436,"x_min":0,"x_max":0,"o":"m 407 846 b 219 983 407 926 379 983 b 29 846 107 983 29 949 l 29 828 l 160 828 l 160 840 b 217 894 160 871 179 894 b 268 843 251 894 268 874 b 218 796 268 819 256 804 l 138 779 b 14 638 50 761 14 724 b 138 510 14 578 44 510 b 268 568 203 510 238 521 b 283 519 272 553 275 535 l 422 519 b 407 607 410 547 407 565 z m 268 664 b 197 599 268 617 228 599 b 153 657 165 599 153 625 b 219 725 153 694 171 715 b 268 746 233 728 253 735 z "},"Ł":{"ha":643,"x_min":0,"x_max":0,"o":"m 69 0 l 624 0 l 624 164 l 269 164 l 269 481 l 444 590 l 444 738 l 269 628 l 269 992 l 69 992 l 69 503 l 0 460 l 0 313 l 69 356 z "},"Ø":{"ha":772,"x_min":0,"x_max":0,"o":"m 260 290 l 257 290 b 249 496 250 342 249 410 b 386 864 249 761 268 864 b 483 814 432 864 463 849 z m 513 701 l 515 701 b 524 496 522 649 524 581 b 386 128 524 229 504 128 b 289 179 339 128 308 143 z m 115 -42 l 182 -71 l 218 14 b 386 -19 261 -8 317 -19 b 724 496 686 -19 724 194 b 615 936 724 692 708 850 l 657 1033 l 590 1063 l 554 978 b 386 1011 510 1000 456 1011 b 49 496 86 1011 49 797 b 157 56 49 300 64 142 z "},"Œ":{"ha":1081,"x_min":0,"x_max":0,"o":"m 1039 992 l 532 992 l 532 939 l 529 939 b 349 1011 496 994 418 1011 b 49 507 89 1011 49 764 b 358 -19 49 243 68 -19 b 529 57 425 -19 507 8 l 532 57 l 532 0 l 1050 0 l 1050 164 l 703 164 l 703 431 l 1018 431 l 1018 594 l 703 594 l 703 828 l 1039 828 z m 249 496 b 386 864 249 760 265 864 b 511 496 504 864 511 775 b 386 128 511 217 504 128 b 249 496 265 128 249 232 z "},"º":{"ha":436,"x_min":0,"x_max":0,"o":"m 17 746 b 218 510 17 589 58 507 b 419 746 371 510 419 592 b 218 983 419 904 378 986 b 17 746 65 983 17 901 z m 156 746 b 218 894 156 832 161 894 b 281 746 264 894 281 851 b 218 599 281 642 264 599 b 156 746 161 599 156 660 z "},"æ":{"ha":1003,"x_min":0,"x_max":0,"o":"m 411 226 b 293 111 411 144 344 111 b 221 215 242 111 221 158 b 329 336 221 282 251 319 b 411 374 353 342 385 354 z m 589 458 l 589 488 b 686 636 589 557 611 636 b 782 458 764 636 778 572 z m 233 518 l 233 539 b 322 636 233 597 264 636 b 411 544 386 636 411 601 b 335 457 411 494 392 472 l 226 428 b 38 194 94 392 38 335 b 218 -19 38 94 85 -19 b 460 110 336 -19 400 -1 b 685 -19 486 44 547 -19 b 954 251 864 -19 947 78 l 782 251 b 682 111 771 160 744 111 b 589 285 613 111 589 197 l 589 344 l 965 344 l 965 388 b 693 767 965 617 915 767 b 517 678 613 767 544 735 b 324 767 476 746 422 767 b 61 536 179 767 61 708 l 61 518 z "},"ı":{"ha":333,"x_min":0,"x_max":0,"o":"m 71 0 l 263 0 l 263 747 l 71 747 z "},"ł":{"ha":333,"x_min":0,"x_max":0,"o":"m 71 0 l 263 0 l 263 518 l 350 575 l 350 697 l 263 640 l 263 992 l 71 992 l 71 514 l -17 456 l -17 333 l 71 392 z "},"ø":{"ha":667,"x_min":0,"x_max":0,"o":"m 236 258 l 233 258 b 231 374 231 292 231 331 b 333 636 231 526 239 636 b 407 589 368 636 392 622 z m 431 488 l 433 488 b 436 374 435 456 436 418 b 333 111 436 188 411 111 b 258 157 296 111 272 128 z m 74 -49 l 135 -81 l 182 10 b 333 -19 219 -11 271 -21 b 628 374 553 -19 628 118 b 542 699 628 526 606 636 l 593 796 l 532 828 l 485 738 b 333 767 446 758 396 768 b 39 374 114 767 39 629 b 125 49 39 221 61 111 z "},"œ":{"ha":1029,"x_min":0,"x_max":0,"o":"m 989 344 l 989 388 b 715 767 989 617 939 767 b 533 663 642 767 571 731 b 335 767 496 733 438 767 b 40 374 115 767 40 629 b 318 -19 40 114 104 -19 b 524 90 414 -19 497 19 b 718 -19 544 35 601 -19 b 978 251 888 -19 971 78 l 806 251 b 704 111 794 160 768 111 b 610 285 633 111 610 197 l 610 344 z m 338 111 b 232 374 240 111 232 221 b 335 636 232 526 240 636 b 438 374 413 636 438 560 b 338 111 438 188 413 111 z m 610 458 l 610 488 b 708 636 610 557 632 636 b 806 458 788 636 801 572 z "},"ß":{"ha":694,"x_min":0,"x_max":0,"o":"m 249 0 l 249 728 b 342 881 249 817 265 881 b 433 756 413 881 433 821 b 342 624 433 679 408 624 l 318 624 l 318 493 l 353 493 b 464 325 438 493 464 426 b 344 122 464 200 446 122 b 315 128 335 122 324 125 l 315 -3 b 407 -8 336 -7 375 -8 b 656 300 617 -8 656 164 b 501 567 656 450 613 549 l 501 569 b 625 774 599 611 625 671 b 351 1011 625 928 526 1011 b 57 732 151 1011 57 925 l 57 0 z "},"¹":{"ha":433,"x_min":0,"x_max":0,"o":"m 160 389 l 315 389 l 315 983 l 196 983 b 44 889 183 919 129 889 l 33 889 l 33 792 l 160 792 z "},"¬":{"ha":833,"x_min":0,"x_max":0,"o":"m 596 136 l 768 136 l 768 589 l 65 589 l 65 417 l 596 417 z "},"µ":{"ha":694,"x_min":0,"x_max":0,"o":"m 439 251 b 338 128 439 168 403 128 b 256 232 281 128 256 157 l 256 747 l 64 747 l 64 -244 l 256 -244 l 256 -8 b 297 -19 264 -14 278 -19 b 444 88 343 -19 404 14 l 447 88 l 447 0 l 631 0 l 631 747 l 439 747 z "},"™":{"ha":1375,"x_min":0,"x_max":0,"o":"m 1169 417 l 1317 417 l 1317 992 l 1082 992 l 967 644 l 964 644 l 849 992 l 614 992 l 614 417 l 761 417 l 761 811 l 764 811 l 896 417 l 1035 417 l 1167 811 l 1169 811 z m 199 417 l 354 417 l 354 861 l 510 861 l 510 992 l 43 992 l 43 861 l 199 861 z "},"Ð":{"ha":797,"x_min":0,"x_max":0,"o":"m 79 0 l 394 0 b 735 510 660 0 735 158 b 407 992 735 801 685 992 l 79 992 l 79 585 l 0 585 l 0 438 l 79 438 z m 279 844 l 364 844 b 535 504 517 844 535 729 b 368 147 535 235 507 147 l 279 147 l 279 438 l 408 438 l 408 585 l 279 585 z "},"½":{"ha":1001,"x_min":0,"x_max":0,"o":"m 100 -43 l 224 -43 l 788 1007 l 664 1007 z m 126 389 l 282 389 l 282 983 l 163 983 b 11 889 150 919 96 889 l 0 889 l 0 792 l 126 792 z m 1001 0 l 1001 114 l 757 114 b 831 203 763 136 782 165 l 910 264 b 1001 444 982 319 1001 368 b 790 594 1001 535 938 594 b 568 422 631 594 568 532 l 568 388 l 715 388 b 786 489 717 432 726 489 b 846 424 822 489 846 460 b 778 311 846 381 831 350 l 708 261 b 568 0 606 188 568 106 z "},"±":{"ha":833,"x_min":0,"x_max":0,"o":"m 331 553 l 65 553 l 65 381 l 331 381 l 331 231 l 503 231 l 503 381 l 768 381 l 768 553 l 503 553 l 503 703 l 331 703 z m 65 0 l 768 0 l 768 172 l 65 172 z "},"Þ":{"ha":721,"x_min":0,"x_max":0,"o":"m 69 0 l 269 0 l 269 218 l 376 218 b 692 517 565 218 692 311 b 419 814 692 665 622 814 l 269 814 l 269 992 l 69 992 z m 269 667 l 353 667 b 492 514 453 667 492 611 b 358 365 492 413 438 365 l 269 365 z "},"¼":{"ha":1001,"x_min":0,"x_max":0,"o":"m 793 221 l 671 221 l 790 422 l 793 422 z m 557 107 l 793 107 l 793 0 l 940 0 l 940 107 l 1001 107 l 1001 221 l 940 221 l 940 594 l 768 594 l 557 233 z m 133 -43 l 257 -43 l 821 1007 l 697 1007 z m 126 389 l 282 389 l 282 983 l 163 983 b 11 889 150 919 96 889 l 0 889 l 0 792 l 126 792 z "},"÷":{"ha":833,"x_min":0,"x_max":0,"o":"m 65 265 l 768 265 l 768 438 l 65 438 z m 282 646 b 417 511 282 571 342 511 b 551 646 492 511 551 571 b 417 781 551 721 492 781 b 282 646 342 781 282 721 z m 282 57 b 417 -78 282 -18 342 -78 b 551 57 492 -78 551 -18 b 417 192 551 132 492 192 b 282 57 342 192 282 132 z "},"¦":{"ha":308,"x_min":0,"x_max":0,"o":"m 68 -19 l 240 -19 l 240 357 l 68 357 z m 68 635 l 240 635 l 240 1011 l 68 1011 z "},"°":{"ha":556,"x_min":0,"x_max":0,"o":"m 72 778 b 278 572 72 664 164 572 b 483 778 392 572 483 664 b 278 983 483 892 392 983 b 72 778 164 983 72 892 z m 178 778 b 278 878 178 833 222 878 b 378 778 333 878 378 833 b 278 678 378 722 333 678 b 178 778 222 678 178 722 z "},"þ":{"ha":694,"x_min":0,"x_max":0,"o":"m 256 374 b 357 619 256 536 272 619 b 457 374 440 619 457 536 b 357 128 457 211 440 128 b 256 374 272 128 256 211 z m 64 -244 l 256 -244 l 256 69 l 258 69 b 419 -19 299 10 347 -19 b 649 374 576 -19 649 96 b 419 767 649 651 576 767 b 258 668 344 767 292 738 l 256 668 l 256 992 l 64 992 z "},"¾":{"ha":1001,"x_min":0,"x_max":0,"o":"m 557 107 l 793 107 l 793 0 l 940 0 l 940 107 l 1001 107 l 1001 221 l 940 221 l 940 594 l 768 594 l 557 233 z m 671 221 l 790 422 l 793 422 l 793 221 z m 188 -43 l 311 -43 l 875 1007 l 751 1007 z m 0 578 l 0 564 b 199 379 0 449 61 379 b 433 558 399 379 433 479 b 319 697 433 632 401 683 l 319 700 b 417 832 381 713 417 760 b 211 983 417 936 349 983 b 60 938 144 983 93 969 b 10 794 26 906 10 860 l 149 794 b 213 878 149 839 161 878 b 269 817 246 878 269 851 b 194 743 269 779 249 743 l 156 743 l 156 646 l 194 646 b 278 558 265 646 278 597 b 215 485 278 518 260 485 b 147 578 164 485 149 526 z "},"²":{"ha":433,"x_min":0,"x_max":0,"o":"m 433 389 l 433 503 l 189 503 b 263 592 194 525 214 554 l 342 653 b 433 833 414 708 433 757 b 222 983 433 924 369 983 b 0 811 63 983 0 921 l 0 776 l 147 776 b 218 878 149 821 158 878 b 278 813 254 878 278 849 b 210 700 278 769 263 739 l 140 650 b 0 389 38 576 0 494 z "},"®":{"ha":1111,"x_min":0,"x_max":0,"o":"m 354 218 l 476 218 l 476 442 l 521 442 l 651 218 l 785 218 l 647 447 b 785 601 724 457 785 510 b 571 774 785 711 715 774 l 354 774 z m 476 676 l 557 676 b 663 608 603 676 663 669 b 569 539 663 549 624 539 l 476 539 z m 40 496 b 556 -19 40 211 271 -19 b 1071 496 840 -19 1071 211 b 556 1011 1071 781 840 1011 b 40 496 271 1011 40 781 z m 196 496 b 556 864 196 697 349 864 b 915 496 763 864 915 697 b 556 128 915 294 763 128 b 196 496 349 128 196 294 z "},"−":{"ha":833,"x_min":0,"x_max":0,"o":"m 65 265 l 768 265 l 768 438 l 65 438 z "},"ð":{"ha":667,"x_min":0,"x_max":0,"o":"m 231 364 b 333 608 231 503 239 608 b 436 364 411 608 436 535 b 333 111 436 185 411 111 b 231 364 239 111 231 217 z m 146 810 l 253 872 b 381 706 301 817 347 760 l 378 703 b 281 739 347 728 311 739 b 39 374 111 739 39 594 b 333 -19 39 114 103 -24 b 628 374 553 -19 628 118 b 400 958 628 628 547 797 l 507 1021 l 447 1079 l 343 1017 b 250 1104 314 1046 283 1075 l 106 1019 b 197 931 135 992 167 961 l 92 868 z "},"×":{"ha":833,"x_min":0,"x_max":0,"o":"m 82 136 l 201 17 l 417 233 l 632 17 l 751 136 l 535 351 l 751 567 l 632 686 l 417 469 l 201 686 l 82 567 l 299 351 z "},"³":{"ha":433,"x_min":0,"x_max":0,"o":"m 0 578 l 0 564 b 199 379 0 449 61 379 b 433 558 399 379 433 479 b 319 697 433 632 401 683 l 319 700 b 417 832 381 713 417 760 b 211 983 417 936 349 983 b 60 938 144 983 93 969 b 10 794 26 906 10 860 l 149 794 b 213 878 149 839 161 878 b 269 817 246 878 269 851 b 194 743 269 779 249 743 l 156 743 l 156 646 l 194 646 b 278 558 265 646 278 597 b 215 485 278 518 260 485 b 147 578 164 485 149 526 z "},"©":{"ha":1111,"x_min":0,"x_max":0,"o":"m 688 414 b 564 317 679 356 632 317 b 419 500 475 317 419 399 b 565 683 419 606 469 683 b 688 590 635 683 674 644 l 821 590 b 572 803 803 729 696 803 b 289 500 394 803 289 671 b 576 197 289 332 400 197 b 826 414 694 197 806 275 z m 196 496 b 556 864 196 697 349 864 b 915 496 763 864 915 697 b 556 128 915 294 763 128 b 196 496 349 128 196 294 z m 40 496 b 556 -19 40 211 271 -19 b 1071 496 840 -19 1071 211 b 556 1011 1071 781 840 1011 b 40 496 271 1011 40 781 z "},"Á":{"ha":772,"x_min":0,"x_max":0,"o":"m 0 0 l 208 0 l 254 210 l 518 210 l 564 0 l 772 0 l 510 992 l 263 992 z m 385 819 l 388 819 l 483 374 l 289 374 z m 296 1050 l 426 1050 l 563 1250 l 371 1250 z "},"Â":{"ha":772,"x_min":0,"x_max":0,"o":"m 0 0 l 208 0 l 254 210 l 518 210 l 564 0 l 772 0 l 510 992 l 263 992 z m 385 819 l 388 819 l 483 374 l 289 374 z m 178 1050 l 317 1050 l 383 1168 l 447 1050 l 594 1050 l 486 1250 l 286 1250 z "},"Ä":{"ha":772,"x_min":0,"x_max":0,"o":"m 0 0 l 208 0 l 254 210 l 518 210 l 564 0 l 772 0 l 510 992 l 263 992 z m 385 819 l 388 819 l 483 374 l 289 374 z m 189 1063 l 344 1063 l 344 1226 l 189 1226 z m 428 1063 l 583 1063 l 583 1226 l 428 1226 z "},"À":{"ha":772,"x_min":0,"x_max":0,"o":"m 0 0 l 208 0 l 254 210 l 518 210 l 564 0 l 772 0 l 510 992 l 263 992 z m 385 819 l 388 819 l 483 374 l 289 374 z m 476 1050 l 401 1250 l 210 1250 l 346 1050 z "},"Å":{"ha":772,"x_min":0,"x_max":0,"o":"m 0 0 l 208 0 l 254 210 l 518 210 l 564 0 l 772 0 l 510 992 l 263 992 z m 385 819 l 388 819 l 483 374 l 289 374 z m 228 1176 b 386 1018 228 1089 299 1018 b 544 1176 474 1018 544 1089 b 386 1335 544 1264 474 1335 b 228 1176 299 1335 228 1264 z m 306 1176 b 386 1257 306 1221 342 1257 b 467 1176 431 1257 467 1221 b 386 1096 467 1132 431 1096 b 306 1176 342 1096 306 1132 z "},"Ã":{"ha":772,"x_min":0,"x_max":0,"o":"m 0 0 l 208 0 l 254 210 l 518 210 l 564 0 l 772 0 l 510 992 l 263 992 z m 385 819 l 388 819 l 483 374 l 289 374 z m 265 1063 b 310 1113 272 1097 289 1113 b 475 1065 354 1113 415 1065 b 604 1238 546 1065 594 1139 l 504 1238 b 465 1188 504 1219 492 1188 b 424 1196 451 1188 438 1190 l 357 1225 b 297 1235 340 1232 322 1235 b 168 1063 226 1235 183 1171 z "},"Ç":{"ha":746,"x_min":0,"x_max":0,"o":"m 297 -128 l 328 -156 b 375 -147 343 -150 356 -147 b 436 -194 413 -147 436 -167 b 367 -242 436 -221 406 -242 b 271 -221 332 -242 290 -232 l 244 -285 b 383 -311 267 -297 322 -311 b 558 -181 496 -311 558 -261 b 442 -78 558 -115 496 -78 b 396 -85 425 -78 413 -81 l 438 -18 b 701 379 656 6 701 179 l 501 379 b 376 128 501 165 449 128 b 249 482 290 128 249 182 b 374 864 249 763 272 864 b 493 657 464 864 493 801 l 693 657 b 386 1011 693 801 672 1011 b 49 496 86 1011 49 797 b 363 -19 49 203 83 -7 z "},"É":{"ha":668,"x_min":0,"x_max":0,"o":"m 69 992 l 69 0 l 638 0 l 638 164 l 269 164 l 269 431 l 603 431 l 603 594 l 269 594 l 269 828 l 624 828 l 624 992 z m 261 1050 l 392 1050 l 528 1250 l 336 1250 z "},"Ê":{"ha":668,"x_min":0,"x_max":0,"o":"m 69 992 l 69 0 l 638 0 l 638 164 l 269 164 l 269 431 l 603 431 l 603 594 l 269 594 l 269 828 l 624 828 l 624 992 z m 143 1050 l 282 1050 l 349 1168 l 413 1050 l 560 1050 l 451 1250 l 251 1250 z "},"Ë":{"ha":668,"x_min":0,"x_max":0,"o":"m 69 992 l 69 0 l 638 0 l 638 164 l 269 164 l 269 431 l 603 431 l 603 594 l 269 594 l 269 828 l 624 828 l 624 992 z m 154 1063 l 310 1063 l 310 1226 l 154 1226 z m 393 1063 l 549 1063 l 549 1226 l 393 1226 z "},"È":{"ha":668,"x_min":0,"x_max":0,"o":"m 69 992 l 69 0 l 638 0 l 638 164 l 269 164 l 269 431 l 603 431 l 603 594 l 269 594 l 269 828 l 624 828 l 624 992 z m 442 1050 l 367 1250 l 175 1250 l 311 1050 z "},"Í":{"ha":358,"x_min":0,"x_max":0,"o":"m 279 0 l 279 992 l 79 992 l 79 0 z m 89 1050 l 219 1050 l 356 1250 l 164 1250 z "},"Î":{"ha":358,"x_min":0,"x_max":0,"o":"m 279 0 l 279 992 l 79 992 l 79 0 z m -29 1050 l 110 1050 l 176 1168 l 240 1050 l 388 1050 l 279 1250 l 79 1250 z "},"Ï":{"ha":358,"x_min":0,"x_max":0,"o":"m 279 0 l 279 992 l 79 992 l 79 0 z m -18 1063 l 138 1063 l 138 1226 l -18 1226 z m 221 1063 l 376 1063 l 376 1226 l 221 1226 z "},"Ì":{"ha":358,"x_min":0,"x_max":0,"o":"m 279 0 l 279 992 l 79 992 l 79 0 z m 269 1050 l 194 1250 l 3 1250 l 139 1050 z "},"Ñ":{"ha":797,"x_min":0,"x_max":0,"o":"m 69 992 l 69 0 l 253 0 l 253 694 l 256 694 l 500 0 l 728 0 l 728 992 l 544 992 l 544 313 l 542 313 l 300 992 z m 278 1063 b 322 1113 285 1097 301 1113 b 488 1065 367 1113 428 1065 b 617 1238 558 1065 607 1139 l 517 1238 b 478 1188 517 1219 504 1188 b 436 1196 464 1188 450 1190 l 369 1225 b 310 1235 353 1232 335 1235 b 181 1063 239 1235 196 1171 z "},"Ó":{"ha":772,"x_min":0,"x_max":0,"o":"m 49 496 b 386 -19 49 194 86 -19 b 724 496 686 -19 724 194 b 386 1011 724 797 686 1011 b 49 496 86 1011 49 797 z m 249 496 b 386 864 249 761 268 864 b 524 496 504 864 524 761 b 386 128 524 229 504 128 b 249 496 268 128 249 229 z m 296 1050 l 426 1050 l 563 1250 l 371 1250 z "},"Ô":{"ha":772,"x_min":0,"x_max":0,"o":"m 49 496 b 386 -19 49 194 86 -19 b 724 496 686 -19 724 194 b 386 1011 724 797 686 1011 b 49 496 86 1011 49 797 z m 249 496 b 386 864 249 761 268 864 b 524 496 504 864 524 761 b 386 128 524 229 504 128 b 249 496 268 128 249 229 z m 178 1050 l 317 1050 l 383 1168 l 447 1050 l 594 1050 l 486 1250 l 286 1250 z "},"Ö":{"ha":772,"x_min":0,"x_max":0,"o":"m 49 496 b 386 -19 49 194 86 -19 b 724 496 686 -19 724 194 b 386 1011 724 797 686 1011 b 49 496 86 1011 49 797 z m 249 496 b 386 864 249 761 268 864 b 524 496 504 864 524 761 b 386 128 524 229 504 128 b 249 496 268 128 249 229 z m 189 1063 l 344 1063 l 344 1226 l 189 1226 z m 428 1063 l 583 1063 l 583 1226 l 428 1226 z "},"Ò":{"ha":772,"x_min":0,"x_max":0,"o":"m 49 496 b 386 -19 49 194 86 -19 b 724 496 686 -19 724 194 b 386 1011 724 797 686 1011 b 49 496 86 1011 49 797 z m 249 496 b 386 864 249 761 268 864 b 524 496 504 864 524 761 b 386 128 524 229 504 128 b 249 496 268 128 249 229 z m 476 1050 l 401 1250 l 210 1250 l 346 1050 z "},"Õ":{"ha":772,"x_min":0,"x_max":0,"o":"m 49 496 b 386 -19 49 194 86 -19 b 724 496 686 -19 724 194 b 386 1011 724 797 686 1011 b 49 496 86 1011 49 797 z m 249 496 b 386 864 249 761 268 864 b 524 496 504 864 524 761 b 386 128 524 229 504 128 b 249 496 268 128 249 229 z m 265 1063 b 310 1113 272 1097 289 1113 b 475 1065 354 1113 415 1065 b 604 1238 546 1065 594 1139 l 504 1238 b 465 1188 504 1219 492 1188 b 424 1196 451 1188 438 1190 l 357 1225 b 297 1235 340 1232 322 1235 b 168 1063 226 1235 183 1171 z "},"Š":{"ha":721,"x_min":0,"x_max":0,"o":"m 31 310 l 31 269 b 346 -19 31 86 119 -19 b 690 285 563 -19 690 75 b 501 547 690 406 651 482 l 347 614 b 244 749 263 650 244 688 b 358 864 244 807 268 864 b 467 717 435 864 467 810 l 658 717 l 658 744 b 351 1011 658 935 529 1011 b 44 719 163 1011 44 913 b 304 419 44 554 126 481 b 482 250 436 374 482 340 b 363 128 482 167 424 128 b 231 281 257 128 231 188 l 231 310 z m 261 1050 l 461 1050 l 569 1250 l 431 1250 l 364 1132 l 300 1250 l 153 1250 z "},"Ú":{"ha":747,"x_min":0,"x_max":0,"o":"m 57 992 l 57 300 b 374 -19 57 35 211 -19 b 690 300 536 -19 690 47 l 690 992 l 490 992 l 490 300 b 374 128 490 201 467 128 b 257 300 281 128 257 201 l 257 992 z m 283 1050 l 414 1050 l 550 1250 l 358 1250 z "},"Û":{"ha":747,"x_min":0,"x_max":0,"o":"m 57 992 l 57 300 b 374 -19 57 35 211 -19 b 690 300 536 -19 690 47 l 690 992 l 490 992 l 490 300 b 374 128 490 201 467 128 b 257 300 281 128 257 201 l 257 992 z m 165 1050 l 304 1050 l 371 1168 l 435 1050 l 582 1050 l 474 1250 l 274 1250 z "},"Ü":{"ha":747,"x_min":0,"x_max":0,"o":"m 57 992 l 57 300 b 374 -19 57 35 211 -19 b 690 300 536 -19 690 47 l 690 992 l 490 992 l 490 300 b 374 128 490 201 467 128 b 257 300 281 128 257 201 l 257 992 z m 176 1063 l 332 1063 l 332 1226 l 176 1226 z m 415 1063 l 571 1063 l 571 1226 l 415 1226 z "},"Ù":{"ha":747,"x_min":0,"x_max":0,"o":"m 57 992 l 57 300 b 374 -19 57 35 211 -19 b 690 300 536 -19 690 47 l 690 992 l 490 992 l 490 300 b 374 128 490 201 467 128 b 257 300 281 128 257 201 l 257 992 z m 464 1050 l 389 1250 l 197 1250 l 333 1050 z "},"Ý":{"ha":722,"x_min":0,"x_max":0,"o":"m 4 992 l 261 390 l 261 0 l 461 0 l 461 390 l 718 992 l 501 992 l 363 608 l 360 608 l 229 992 z m 271 1050 l 401 1050 l 538 1250 l 346 1250 z "},"Ÿ":{"ha":722,"x_min":0,"x_max":0,"o":"m 4 992 l 261 390 l 261 0 l 461 0 l 461 390 l 718 992 l 501 992 l 363 608 l 360 608 l 229 992 z m 164 1063 l 319 1063 l 319 1226 l 164 1226 z m 403 1063 l 558 1063 l 558 1226 l 403 1226 z "},"Ž":{"ha":668,"x_min":0,"x_max":0,"o":"m 33 0 l 635 0 l 635 164 l 258 164 l 629 840 l 629 992 l 58 992 l 58 828 l 399 828 l 33 146 z m 235 1050 l 435 1050 l 543 1250 l 404 1250 l 338 1132 l 274 1250 l 126 1250 z "},"á":{"ha":668,"x_min":0,"x_max":0,"o":"m 235 518 l 235 539 b 324 636 235 597 265 636 b 413 544 388 636 413 601 b 336 457 413 494 393 472 l 228 428 b 39 194 96 392 39 335 b 219 -19 39 94 86 -19 b 410 78 311 -19 365 0 l 413 78 b 436 0 418 53 424 24 l 619 0 b 596 144 600 43 596 75 l 596 538 b 325 767 596 672 553 767 b 63 536 181 767 63 708 l 63 518 z m 413 226 b 294 111 413 144 346 111 b 222 215 243 111 222 158 b 331 336 222 282 253 319 b 413 374 354 342 386 354 z m 244 835 l 375 835 l 511 1035 l 319 1035 z "},"â":{"ha":668,"x_min":0,"x_max":0,"o":"m 235 518 l 235 539 b 324 636 235 597 265 636 b 413 544 388 636 413 601 b 336 457 413 494 393 472 l 228 428 b 39 194 96 392 39 335 b 219 -19 39 94 86 -19 b 410 78 311 -19 365 0 l 413 78 b 436 0 418 53 424 24 l 619 0 b 596 144 600 43 596 75 l 596 538 b 325 767 596 672 553 767 b 63 536 181 767 63 708 l 63 518 z m 413 226 b 294 111 413 144 346 111 b 222 215 243 111 222 158 b 331 336 222 282 253 319 b 413 374 354 342 386 354 z m 126 835 l 265 835 l 332 953 l 396 835 l 543 835 l 435 1035 l 235 1035 z "},"ä":{"ha":668,"x_min":0,"x_max":0,"o":"m 235 518 l 235 539 b 324 636 235 597 265 636 b 413 544 388 636 413 601 b 336 457 413 494 393 472 l 228 428 b 39 194 96 392 39 335 b 219 -19 39 94 86 -19 b 410 78 311 -19 365 0 l 413 78 b 436 0 418 53 424 24 l 619 0 b 596 144 600 43 596 75 l 596 538 b 325 767 596 672 553 767 b 63 536 181 767 63 708 l 63 518 z m 413 226 b 294 111 413 144 346 111 b 222 215 243 111 222 158 b 331 336 222 282 253 319 b 413 374 354 342 386 354 z m 138 847 l 293 847 l 293 1011 l 138 1011 z m 376 847 l 532 847 l 532 1011 l 376 1011 z "},"à":{"ha":668,"x_min":0,"x_max":0,"o":"m 235 518 l 235 539 b 324 636 235 597 265 636 b 413 544 388 636 413 601 b 336 457 413 494 393 472 l 228 428 b 39 194 96 392 39 335 b 219 -19 39 94 86 -19 b 410 78 311 -19 365 0 l 413 78 b 436 0 418 53 424 24 l 619 0 b 596 144 600 43 596 75 l 596 538 b 325 767 596 672 553 767 b 63 536 181 767 63 708 l 63 518 z m 413 226 b 294 111 413 144 346 111 b 222 215 243 111 222 158 b 331 336 222 282 253 319 b 413 374 354 342 386 354 z m 425 835 l 350 1035 l 158 1035 l 294 835 z "},"å":{"ha":668,"x_min":0,"x_max":0,"o":"m 235 518 l 235 539 b 324 636 235 597 265 636 b 413 544 388 636 413 601 b 336 457 413 494 393 472 l 228 428 b 39 194 96 392 39 335 b 219 -19 39 94 86 -19 b 410 78 311 -19 365 0 l 413 78 b 436 0 418 53 424 24 l 619 0 b 596 144 600 43 596 75 l 596 538 b 325 767 596 672 553 767 b 63 536 181 767 63 708 l 63 518 z m 413 226 b 294 111 413 144 346 111 b 222 215 243 111 222 158 b 331 336 222 282 253 319 b 413 374 354 342 386 354 z m 176 969 b 335 811 176 882 247 811 b 493 969 422 811 493 882 b 335 1128 493 1057 422 1128 b 176 969 247 1128 176 1057 z m 254 969 b 335 1050 254 1014 290 1050 b 415 969 379 1050 415 1014 b 335 889 415 925 379 889 b 254 969 290 889 254 925 z "},"ã":{"ha":668,"x_min":0,"x_max":0,"o":"m 235 518 l 235 539 b 324 636 235 597 265 636 b 413 544 388 636 413 601 b 336 457 413 494 393 472 l 228 428 b 39 194 96 392 39 335 b 219 -19 39 94 86 -19 b 410 78 311 -19 365 0 l 413 78 b 436 0 418 53 424 24 l 619 0 b 596 144 600 43 596 75 l 596 538 b 325 767 596 672 553 767 b 63 536 181 767 63 708 l 63 518 z m 413 226 b 294 111 413 144 346 111 b 222 215 243 111 222 158 b 331 336 222 282 253 319 b 413 374 354 342 386 354 z m 214 847 b 258 897 221 882 238 897 b 424 850 303 897 364 850 b 553 1022 494 850 543 924 l 453 1022 b 414 972 453 1004 440 972 b 372 981 400 972 386 975 l 306 1010 b 246 1019 289 1017 271 1019 b 117 847 175 1019 132 956 z "},"ç":{"ha":643,"x_min":0,"x_max":0,"o":"m 238 -128 l 268 -156 b 315 -147 283 -150 296 -147 b 376 -194 353 -147 376 -167 b 307 -242 376 -221 346 -242 b 211 -221 272 -242 231 -232 l 185 -285 b 324 -311 207 -297 263 -311 b 499 -181 436 -311 499 -261 b 382 -78 499 -115 436 -78 b 336 -85 365 -78 353 -81 l 379 -17 b 607 286 540 3 607 110 l 424 286 b 331 111 424 165 394 111 b 228 372 244 111 228 188 b 338 628 228 544 243 628 b 424 478 410 628 424 550 l 607 478 b 339 767 607 654 515 767 b 36 374 163 767 36 681 b 303 -19 36 85 124 -12 z "},"é":{"ha":643,"x_min":0,"x_max":0,"o":"m 607 344 l 607 388 b 333 767 607 617 557 767 b 36 381 75 767 36 581 b 325 -19 36 194 47 -19 b 596 251 506 -19 589 78 l 424 251 b 322 111 413 160 386 111 b 228 285 251 111 228 197 l 228 344 z m 228 458 l 228 488 b 326 636 228 557 250 636 b 424 458 406 636 419 572 z m 232 835 l 363 835 l 499 1035 l 307 1035 z "},"ê":{"ha":643,"x_min":0,"x_max":0,"o":"m 607 344 l 607 388 b 333 767 607 617 557 767 b 36 381 75 767 36 581 b 325 -19 36 194 47 -19 b 596 251 506 -19 589 78 l 424 251 b 322 111 413 160 386 111 b 228 285 251 111 228 197 l 228 344 z m 228 458 l 228 488 b 326 636 228 557 250 636 b 424 458 406 636 419 572 z m 114 835 l 253 835 l 319 953 l 383 835 l 531 835 l 422 1035 l 222 1035 z "},"ë":{"ha":643,"x_min":0,"x_max":0,"o":"m 607 344 l 607 388 b 333 767 607 617 557 767 b 36 381 75 767 36 581 b 325 -19 36 194 47 -19 b 596 251 506 -19 589 78 l 424 251 b 322 111 413 160 386 111 b 228 285 251 111 228 197 l 228 344 z m 228 458 l 228 488 b 326 636 228 557 250 636 b 424 458 406 636 419 572 z m 125 847 l 281 847 l 281 1011 l 125 1011 z m 364 847 l 519 847 l 519 1011 l 364 1011 z "},"è":{"ha":643,"x_min":0,"x_max":0,"o":"m 607 344 l 607 388 b 333 767 607 617 557 767 b 36 381 75 767 36 581 b 325 -19 36 194 47 -19 b 596 251 506 -19 589 78 l 424 251 b 322 111 413 160 386 111 b 228 285 251 111 228 197 l 228 344 z m 228 458 l 228 488 b 326 636 228 557 250 636 b 424 458 406 636 419 572 z m 413 835 l 338 1035 l 146 1035 l 282 835 z "},"í":{"ha":333,"x_min":0,"x_max":0,"o":"m 71 0 l 263 0 l 263 747 l 71 747 z m 76 835 l 207 835 l 343 1035 l 151 1035 z "},"î":{"ha":333,"x_min":0,"x_max":0,"o":"m 71 0 l 263 0 l 263 747 l 71 747 z m -42 835 l 97 835 l 164 953 l 228 835 l 375 835 l 267 1035 l 67 1035 z "},"ï":{"ha":333,"x_min":0,"x_max":0,"o":"m 71 0 l 263 0 l 263 747 l 71 747 z m -31 847 l 125 847 l 125 1011 l -31 1011 z m 208 847 l 364 847 l 364 1011 l 208 1011 z "},"ì":{"ha":333,"x_min":0,"x_max":0,"o":"m 71 0 l 263 0 l 263 747 l 71 747 z m 257 835 l 182 1035 l -10 1035 l 126 835 z "},"ñ":{"ha":694,"x_min":0,"x_max":0,"o":"m 64 0 l 256 0 l 256 496 b 357 619 256 579 292 619 b 439 515 414 619 439 590 l 439 0 l 631 0 l 631 554 b 440 767 631 701 560 767 b 250 660 360 767 290 733 l 247 660 l 247 747 l 64 747 z m 226 847 b 271 897 233 882 250 897 b 436 850 315 897 376 850 b 565 1022 507 850 556 924 l 465 1022 b 426 972 465 1004 453 972 b 385 981 413 972 399 975 l 318 1010 b 258 1019 301 1017 283 1019 b 129 847 188 1019 144 956 z "},"ó":{"ha":667,"x_min":0,"x_max":0,"o":"m 39 374 b 333 -19 39 114 103 -24 b 628 374 553 -19 628 118 b 333 767 628 633 564 771 b 39 374 114 767 39 629 z m 231 374 b 333 636 231 526 239 636 b 436 374 411 636 436 560 b 333 111 436 188 411 111 b 231 374 239 111 231 221 z m 243 835 l 374 835 l 510 1035 l 318 1035 z "},"ô":{"ha":667,"x_min":0,"x_max":0,"o":"m 39 374 b 333 -19 39 114 103 -24 b 628 374 553 -19 628 118 b 333 767 628 633 564 771 b 39 374 114 767 39 629 z m 231 374 b 333 636 231 526 239 636 b 436 374 411 636 436 560 b 333 111 436 188 411 111 b 231 374 239 111 231 221 z m 125 835 l 264 835 l 331 953 l 394 835 l 542 835 l 433 1035 l 233 1035 z "},"ö":{"ha":667,"x_min":0,"x_max":0,"o":"m 39 374 b 333 -19 39 114 103 -24 b 628 374 553 -19 628 118 b 333 767 628 633 564 771 b 39 374 114 767 39 629 z m 231 374 b 333 636 231 526 239 636 b 436 374 411 636 436 560 b 333 111 436 188 411 111 b 231 374 239 111 231 221 z m 136 847 l 292 847 l 292 1011 l 136 1011 z m 375 847 l 531 847 l 531 1011 l 375 1011 z "},"ò":{"ha":667,"x_min":0,"x_max":0,"o":"m 39 374 b 333 -19 39 114 103 -24 b 628 374 553 -19 628 118 b 333 767 628 633 564 771 b 39 374 114 767 39 629 z m 231 374 b 333 636 231 526 239 636 b 436 374 411 636 436 560 b 333 111 436 188 411 111 b 231 374 239 111 231 221 z m 424 835 l 349 1035 l 157 1035 l 293 835 z "},"õ":{"ha":667,"x_min":0,"x_max":0,"o":"m 39 374 b 333 -19 39 114 103 -24 b 628 374 553 -19 628 118 b 333 767 628 633 564 771 b 39 374 114 767 39 629 z m 231 374 b 333 636 231 526 239 636 b 436 374 411 636 436 560 b 333 111 436 188 411 111 b 231 374 239 111 231 221 z m 213 847 b 257 897 219 882 236 897 b 422 850 301 897 363 850 b 551 1022 493 850 542 924 l 451 1022 b 413 972 451 1004 439 972 b 371 981 399 972 385 975 l 304 1010 b 244 1019 288 1017 269 1019 b 115 847 174 1019 131 956 z "},"š":{"ha":617,"x_min":0,"x_max":0,"o":"m 32 244 l 32 218 b 307 -19 32 75 92 -19 b 585 215 468 -19 585 58 b 419 429 585 328 540 389 l 304 468 b 221 556 240 489 221 519 b 311 636 221 608 263 636 b 396 524 374 636 396 599 l 568 524 l 568 554 b 313 767 568 689 486 767 b 38 542 115 767 38 665 b 197 333 38 436 92 371 l 332 285 b 401 200 369 271 401 249 b 304 111 401 140 363 111 b 204 219 239 111 204 154 l 204 244 z m 208 835 l 408 835 l 517 1035 l 378 1035 l 311 917 l 247 1035 l 100 1035 z "},"ú":{"ha":694,"x_min":0,"x_max":0,"o":"m 447 0 l 631 0 l 631 747 l 439 747 l 439 251 b 338 128 439 168 403 128 b 256 232 281 128 256 157 l 256 747 l 64 747 l 64 193 b 254 -19 64 46 135 -19 b 444 88 335 -19 404 14 l 447 88 z m 257 835 l 388 835 l 524 1035 l 332 1035 z "},"û":{"ha":694,"x_min":0,"x_max":0,"o":"m 447 0 l 631 0 l 631 747 l 439 747 l 439 251 b 338 128 439 168 403 128 b 256 232 281 128 256 157 l 256 747 l 64 747 l 64 193 b 254 -19 64 46 135 -19 b 444 88 335 -19 404 14 l 447 88 z m 139 835 l 278 835 l 344 953 l 408 835 l 556 835 l 447 1035 l 247 1035 z "},"ü":{"ha":694,"x_min":0,"x_max":0,"o":"m 447 0 l 631 0 l 631 747 l 439 747 l 439 251 b 338 128 439 168 403 128 b 256 232 281 128 256 157 l 256 747 l 64 747 l 64 193 b 254 -19 64 46 135 -19 b 444 88 335 -19 404 14 l 447 88 z m 150 847 l 306 847 l 306 1011 l 150 1011 z m 389 847 l 544 847 l 544 1011 l 389 1011 z "},"ù":{"ha":694,"x_min":0,"x_max":0,"o":"m 447 0 l 631 0 l 631 747 l 439 747 l 439 251 b 338 128 439 168 403 128 b 256 232 281 128 256 157 l 256 747 l 64 747 l 64 193 b 254 -19 64 46 135 -19 b 444 88 335 -19 404 14 l 447 88 z m 438 835 l 363 1035 l 171 1035 l 307 835 z "},"ý":{"ha":617,"x_min":0,"x_max":0,"o":"m 64 -244 l 142 -244 b 429 50 319 -244 363 -208 l 610 747 l 418 747 l 321 231 l 318 231 l 207 747 l 7 747 l 217 0 b 114 -106 211 -67 185 -106 b 64 -101 97 -106 81 -104 z m 218 835 l 349 835 l 485 1035 l 293 1035 z "},"ÿ":{"ha":617,"x_min":0,"x_max":0,"o":"m 64 -244 l 142 -244 b 429 50 319 -244 363 -208 l 610 747 l 418 747 l 321 231 l 318 231 l 207 747 l 7 747 l 217 0 b 114 -106 211 -67 185 -106 b 64 -101 97 -106 81 -104 z m 111 847 l 267 847 l 267 1011 l 111 1011 z m 350 847 l 506 847 l 506 1011 l 350 1011 z "},"ž":{"ha":592,"x_min":0,"x_max":0,"o":"m 33 0 l 558 0 l 558 156 l 260 156 l 558 600 l 558 747 l 47 747 l 47 592 l 332 592 l 33 147 z m 196 835 l 396 835 l 504 1035 l 365 1035 l 299 917 l 235 1035 l 88 1035 z "},"∆":{"ha":793,"x_min":0,"x_max":0,"o":"m 33 0 l 757 0 l 757 104 l 499 986 l 306 986 l 33 101 z m 200 139 l 331 546 b 394 779 350 626 385 726 l 397 779 b 465 526 411 718 447 604 l 588 139 z "},"Ω":{"ha":832,"x_min":0,"x_max":0,"o":"m 200 140 l 42 140 l 42 0 l 356 0 l 356 101 b 225 503 289 153 225 300 b 417 835 225 696 297 835 b 603 510 543 835 603 681 b 474 101 603 288 538 154 l 474 0 l 786 0 l 786 140 l 626 140 l 626 144 b 768 550 697 225 768 375 b 419 982 768 746 654 982 b 58 538 203 982 58 781 b 200 144 58 365 128 229 z "},"μ":{"ha":694,"x_min":0,"x_max":0,"o":"m 439 251 b 338 128 439 168 403 128 b 256 232 281 128 256 157 l 256 747 l 64 747 l 64 -244 l 256 -244 l 256 -8 b 297 -19 264 -14 278 -19 b 444 88 343 -19 404 14 l 447 88 l 447 0 l 631 0 l 631 747 l 439 747 z "},"π":{"ha":735,"x_min":0,"x_max":0,"o":"m 706 579 l 717 728 l 210 728 b 7 682 106 728 39 707 l 25 567 b 139 579 50 574 82 579 b 64 0 138 431 107 171 l 221 0 b 300 579 267 158 294 438 l 458 579 l 458 189 b 481 0 458 97 465 31 l 639 0 b 622 193 629 43 622 97 l 622 579 z "},"€":{"ha":667,"x_min":0,"x_max":0,"o":"m 665 918 b 451 988 606 964 535 988 b 135 646 260 988 154 874 l 78 646 l 36 538 l 131 538 l 129 467 l 76 467 l 36 358 l 132 358 b 424 -19 139 107 236 -19 b 633 43 493 -19 563 1 l 633 217 b 454 124 561 154 501 124 b 349 208 403 124 367 151 b 331 358 339 238 333 288 l 471 358 l 511 467 l 328 467 l 328 538 l 525 538 l 565 646 l 332 646 b 356 782 336 711 344 756 b 464 850 375 828 411 850 b 601 779 511 850 557 826 z "},"ℓ":{"ha":624,"x_min":0,"x_max":0,"o":"m 539 238 b 392 119 506 179 454 119 b 288 275 331 119 288 169 l 286 347 b 518 818 428 503 518 661 b 351 1061 518 957 467 1061 b 128 721 232 1061 128 956 l 128 365 b 26 268 97 331 64 304 l 65 178 b 129 233 86 196 110 217 l 129 217 b 354 -15 136 94 196 -15 b 603 169 450 -15 540 33 z m 286 707 b 360 938 286 888 324 938 b 424 829 407 938 424 899 b 286 507 424 733 367 614 z "},"℮":{"ha":1208,"x_min":0,"x_max":0,"o":"m 1161 468 l 1161 482 b 603 983 1161 758 911 983 b 47 482 296 983 47 758 b 603 -18 47 206 296 -18 b 1043 175 782 -18 944 58 l 964 175 b 604 10 876 75 749 10 b 264 158 471 10 351 68 b 251 189 256 167 251 178 l 251 463 b 258 468 251 467 254 468 z m 956 504 b 950 494 956 500 954 494 l 258 494 b 251 504 254 494 251 500 l 251 772 b 265 806 251 785 256 797 b 604 953 353 894 472 953 b 943 811 736 953 856 897 b 956 778 951 801 956 790 z "},"∂":{"ha":706,"x_min":0,"x_max":0,"o":"m 131 882 b 286 949 164 914 215 949 b 483 629 407 949 483 790 l 483 585 l 482 585 b 315 678 464 618 407 678 b 49 313 174 678 49 543 b 301 -12 49 156 133 -12 b 643 569 519 -12 643 207 b 308 1092 643 929 482 1092 b 86 1015 196 1092 126 1047 z m 317 133 b 211 304 251 133 211 207 b 346 539 211 424 264 539 b 469 438 415 539 458 478 b 318 133 458 297 407 133 z "},"∏":{"ha":886,"x_min":0,"x_max":0,"o":"m 850 810 l 850 967 l 33 967 l 33 810 l 153 810 l 153 -133 l 317 -133 l 317 810 l 568 810 l 568 -133 l 732 -133 l 732 810 z "},"∑":{"ha":676,"x_min":0,"x_max":0,"o":"m 653 -133 l 653 28 l 224 28 l 224 32 l 504 451 l 254 819 l 254 824 l 633 824 l 633 967 l 40 967 l 40 846 l 322 419 l 32 -19 l 32 -133 z "},"∙":{"ha":333,"x_min":0,"x_max":0,"o":"m 32 392 b 167 257 32 317 92 257 b 301 392 242 257 301 317 b 167 526 301 467 242 526 b 32 392 92 526 32 467 z "},"√":{"ha":735,"x_min":0,"x_max":0,"o":"m 739 1164 l 626 1164 l 422 156 b 403 17 413 103 407 47 l 400 19 b 376 147 396 49 385 99 l 260 564 l 42 476 l 68 379 l 160 415 l 336 -189 l 467 -189 z "},"∞":{"ha":1003,"x_min":0,"x_max":0,"o":"m 940 400 b 740 617 940 531 853 615 b 507 474 624 617 560 533 b 276 617 440 561 371 617 b 61 392 153 617 61 525 b 265 172 61 261 158 172 b 504 318 369 172 438 235 b 732 172 589 203 657 172 b 940 399 839 172 940 256 z m 276 264 b 156 390 208 264 156 321 b 272 525 156 468 197 525 b 453 388 356 525 399 460 b 279 264 401 326 350 264 z m 731 525 b 846 392 801 525 846 468 b 736 264 846 335 807 264 b 554 397 669 264 631 300 b 729 525 594 444 651 525 z "},"∫":{"ha":518,"x_min":0,"x_max":0,"o":"m 479 1182 b 401 1196 464 1189 433 1196 b 249 1132 344 1196 285 1175 b 174 819 194 1069 174 982 b 192 135 174 582 192 389 b 160 -79 192 13 181 -47 b 107 -107 147 -100 126 -107 b 56 -93 85 -107 68 -99 l 35 -218 b 131 -239 53 -228 89 -239 b 299 -140 194 -239 264 -212 b 343 139 326 -83 343 7 b 325 804 343 389 325 578 b 358 1038 325 921 332 1000 b 419 1072 375 1063 396 1072 b 463 1061 438 1072 450 1067 z "},"≈":{"ha":676,"x_min":0,"x_max":0,"o":"m 569 613 b 463 518 538 558 510 518 b 357 565 428 518 400 539 b 226 613 328 582 288 613 b 47 475 147 613 82 554 l 107 425 b 217 518 135 471 163 518 b 322 474 256 518 285 500 b 460 422 378 438 411 422 b 628 561 532 422 592 483 z m 569 369 b 463 275 538 315 510 275 b 357 324 426 275 397 299 b 225 369 328 340 288 369 b 47 233 147 369 82 311 l 107 182 b 217 276 135 228 163 276 b 322 231 256 276 283 257 b 458 181 378 196 411 181 b 628 318 533 181 593 242 z "},"≠":{"ha":676,"x_min":0,"x_max":0,"o":"m 500 690 l 424 718 l 365 578 l 60 578 l 60 479 l 331 479 l 258 304 l 60 304 l 60 207 l 224 207 l 176 93 l 251 64 l 311 207 l 615 207 l 615 304 l 346 304 l 418 479 l 615 479 l 615 578 l 453 578 z "},"≤":{"ha":676,"x_min":0,"x_max":0,"o":"m 613 138 l 613 254 l 160 483 l 160 486 l 611 714 l 611 831 l 67 538 l 67 431 z m 618 -12 l 618 88 l 63 88 l 63 -12 z "},"≥":{"ha":676,"x_min":0,"x_max":0,"o":"m 69 831 l 69 714 l 522 486 l 522 483 l 71 254 l 71 138 l 615 431 l 615 538 z m 617 -12 l 617 88 l 63 88 l 63 -12 z "},"◊":{"ha":735,"x_min":0,"x_max":0,"o":"m 671 483 l 439 1031 l 304 1031 l 64 483 l 294 -64 l 429 -64 z m 524 479 l 390 163 b 368 78 385 147 372 100 l 363 78 b 340 165 358 99 350 135 l 210 486 l 342 794 b 367 886 353 825 361 858 l 372 886 b 396 794 376 860 386 822 z "}," ":{"ha":333,"x_min":0,"x_max":0,"o":""},"­":{"ha":514,"x_min":0,"x_max":0,"o":"m 61 483 l 61 319 l 453 319 l 453 483 z "},"ˉ":{"ha":308,"x_min":0,"x_max":0,"o":"m -50 992 l -50 886 l 358 886 l 358 992 z "},"Ω":{"ha":832,"x_min":0,"x_max":0,"o":"m 200 140 l 42 140 l 42 0 l 356 0 l 356 101 b 225 503 289 153 225 300 b 417 835 225 696 297 835 b 603 510 543 835 603 681 b 474 101 603 288 538 154 l 474 0 l 786 0 l 786 140 l 626 140 l 626 144 b 768 550 697 225 768 375 b 419 982 768 746 654 982 b 58 538 203 982 58 781 b 200 144 58 365 128 229 z "},"∕":{"ha":232,"x_min":0,"x_max":0,"o":"m -228 -43 l -104 -43 l 460 1007 l 336 1007 z "},"‐":{"ha":514,"x_min":0,"x_max":0,"o":"m 61 483 l 61 319 l 453 319 l 453 483 z "}}}
